<svg xmlns="http://www.w3.org/2000/svg" width="103.752" height="103.752" viewBox="0 0 103.752 103.752">
  <g id="Group_6473" data-name="Group 6473" transform="translate(-1254.656 2677)">
    <path id="Path_5180" data-name="Path 5180" d="M1027.408,51.877A51.876,51.876,0,1,1,975.528,0a51.876,51.876,0,0,1,51.88,51.877Z" transform="translate(331 -2677)" fill="#ff6845"/>
    <path id="Path_5181" data-name="Path 5181" d="M961.829,44.759l2.844,2.844.736.736-.736.734-2.844,2.844a.186.186,0,0,0,.041.294l3.1,1.727V59.5a.625.625,0,0,0,.321.546l9.75,5.43a.627.627,0,0,0,.3.079.592.592,0,0,1,.372,0,.627.627,0,0,0,.3-.079l9.751-5.43a.623.623,0,0,0,.32-.545V53.938l3.1-1.727a.186.186,0,0,0,.041-.294l-3.579-3.578,3.579-3.58a.186.186,0,0,0-.041-.294l-9.785-5.449a.186.186,0,0,0-.222.031l-1.8,1.8-1.683,1.683a.187.187,0,0,0,.041.294l9.615,5.353.292.164-.292.161-9.533,5.309a2.208,2.208,0,0,1-.593,0L965.7,48.5l-.291-.161.291-.164,9.615-5.353a.186.186,0,0,0,.041-.294l-1.682-1.683-1.8-1.8a.186.186,0,0,0-.222-.031l-9.784,5.449a.186.186,0,0,0-.041.294M975.97,55.033l2.906,2.906a.624.624,0,0,0,.745.1l5.594-3.115v4.425L975.97,64.5Zm-10.123-.1,5.594,3.115a.626.626,0,0,0,.746-.1l2.906-2.906V64.5l-9.246-5.149Zm35.439-3.054a25.554,25.554,0,0,1-5.218,15.554,26.011,26.011,0,0,1-11.98,8.762,1.25,1.25,0,0,1-1.6-.84l-.006-.021a1.272,1.272,0,0,1,.816-1.555,23.447,23.447,0,0,0,10.743-7.881,23.245,23.245,0,0,0,0-28.036,23.47,23.47,0,0,0-10.23-7.689v4.861a.583.583,0,0,1-.939.462l-8.141-6.266a.583.583,0,0,1,0-.925l8.141-6.266a.583.583,0,0,1,.939.463v4.969a26,26,0,0,1,12.255,8.856,25.549,25.549,0,0,1,5.218,15.552M976.33,75.451l-8.141,6.266a.584.584,0,0,1-.94-.462v-4.97a26,26,0,0,1-12.255-8.856,25.788,25.788,0,0,1,0-31.106,26.011,26.011,0,0,1,11.98-8.762,1.25,1.25,0,0,1,1.6.84l.006.021a1.271,1.271,0,0,1-.816,1.555,23.454,23.454,0,0,0-10.743,7.881,23.244,23.244,0,0,0,0,28.037,23.471,23.471,0,0,0,10.229,7.688V68.722a.584.584,0,0,1,.94-.462l8.141,6.266a.583.583,0,0,1,0,.925" transform="translate(331 -2677)" fill="#fff" fill-rule="evenodd"/>
  </g>
</svg>
