<svg xmlns="http://www.w3.org/2000/svg" width="103.752" height="103.752" viewBox="0 0 103.752 103.752">
  <g id="Group_6471" data-name="Group 6471" transform="translate(-1000.04 2677)">
    <path id="Path_5170" data-name="Path 5170" d="M772.792,51.877A51.876,51.876,0,1,1,720.912,0a51.876,51.876,0,0,1,51.88,51.877Z" transform="translate(331 -2677)" fill="#ff6845"/>
    <path id="Path_5171" data-name="Path 5171" d="M731.776,24.752a16.265,16.265,0,1,1-16.265,16.265,16.265,16.265,0,0,1,16.265-16.265" transform="translate(331 -2677)" fill="#fff"/>
    <path id="Path_5172" data-name="Path 5172" d="M734.725,47.476a6.741,6.741,0,0,1-5.711-3.164.292.292,0,0,1,.09-.4.286.286,0,0,1,.155-.046H734a.66.66,0,0,0,.66-.658v-.758a.659.659,0,0,0-.659-.659h-5.681a.293.293,0,0,1-.291-.26,6.79,6.79,0,0,1,0-1.6.293.293,0,0,1,.291-.259H734a.66.66,0,0,0,.66-.659v-.758A.659.659,0,0,0,734,37.6h-4.74a.293.293,0,0,1-.245-.45,6.732,6.732,0,0,1,9.277-2.14c.079.05.157.1.234.154a.659.659,0,0,0,.842-.083l.885-.9a.657.657,0,0,0-.005-.93.623.623,0,0,0-.073-.063A9.3,9.3,0,0,0,726.03,37.41a.293.293,0,0,1-.277.19H722.67a.659.659,0,0,0-.66.657h0v.758a.66.66,0,0,0,.66.659h2.482a.289.289,0,0,1,.291.289v.023q-.031.369-.031.744t.031.745a.29.29,0,0,1-.265.312H722.67a.66.66,0,0,0-.66.658v.758a.66.66,0,0,0,.66.659h3.083a.293.293,0,0,1,.277.19,9.3,9.3,0,0,0,14.144,4.222.657.657,0,0,0,.141-.919.62.62,0,0,0-.063-.073l-.885-.9a.659.659,0,0,0-.842-.082,6.7,6.7,0,0,1-3.8,1.175" transform="translate(331 -2677)" fill="#ff6845"/>
    <path id="Path_5173" data-name="Path 5173" d="M713.622,39.339A19.83,19.83,0,1,1,693.791,59.17a19.831,19.831,0,0,1,19.831-19.831" transform="translate(331 -2677)" fill="#ffcdc7"/>
    <path id="Path_5174" data-name="Path 5174" d="M712.07,69.122a10.416,10.416,0,0,1-3.031-.884A8.567,8.567,0,0,1,706.63,66.6l1.048-1.562a1.09,1.09,0,0,1,.369-.339.939.939,0,0,1,.477-.13,1.249,1.249,0,0,1,.645.213q.345.214.788.5a10.816,10.816,0,0,0,1.008.579,4.773,4.773,0,0,0,1.339.429l.524-6.184q-.98-.277-1.936-.651a6.5,6.5,0,0,1-1.726-.991,4.59,4.59,0,0,1-1.235-1.558,5.68,5.68,0,0,1-.049-4.412A5.483,5.483,0,0,1,709.1,50.7a6.492,6.492,0,0,1,1.974-1.3,6.675,6.675,0,0,1,2.691-.512l.152-1.758a.98.98,0,0,1,.277-.6.843.843,0,0,1,.645-.264H716.1l-.234,2.713a7.622,7.622,0,0,1,2.526.829,9.248,9.248,0,0,1,1.849,1.338l-.83,1.256a1.678,1.678,0,0,1-.388.414.78.78,0,0,1-.468.139,1.2,1.2,0,0,1-.49-.131c-.184-.088-.405-.193-.645-.317s-.513-.25-.807-.38a5.635,5.635,0,0,0-.98-.318l-.484,5.718q.994.3,1.968.669a7.15,7.15,0,0,1,1.752.946,4.532,4.532,0,0,1,1.263,1.443,4.371,4.371,0,0,1,.483,2.161,6.718,6.718,0,0,1-.428,2.409,5.909,5.909,0,0,1-1.249,1.988,6.317,6.317,0,0,1-2.023,1.4,8.078,8.078,0,0,1-2.747.645L714,71.217a.972.972,0,0,1-.276.586.841.841,0,0,1-.646.27h-1.257Zm-1.4-14.885a2.154,2.154,0,0,0,.683,1.637,3.57,3.57,0,0,0,.766.554,7.4,7.4,0,0,0,.966.435l.428-5.111a4.965,4.965,0,0,0-1.3.324,2.884,2.884,0,0,0-.884.56,2.046,2.046,0,0,0-.5.737,2.365,2.365,0,0,0-.158.864m6.708,9.031a2.136,2.136,0,0,0-.184-.922,2.2,2.2,0,0,0-.525-.7,3.388,3.388,0,0,0-.794-.525,8.224,8.224,0,0,0-.994-.4l-.469,5.6a3.6,3.6,0,0,0,2.214-.987,2.9,2.9,0,0,0,.752-2.071Z" transform="translate(331 -2677)" fill="#ff6845"/>
    <path id="Path_5175" data-name="Path 5175" d="M715.424,30.046l-3.832-5.072a.563.563,0,0,0-.995.206l-.764,3.127a12.985,12.985,0,0,0-13.716,14.631.636.636,0,0,0,.631.553.786.786,0,0,0,.083-.005.637.637,0,0,0,.554-.709v-.005a11.719,11.719,0,0,1,12.145-13.209l-.837,3.412a.562.562,0,0,0,.788.645l5.74-2.728a.561.561,0,0,0,.2-.846" transform="translate(331 -2677)" fill="#fff"/>
    <path id="Path_5176" data-name="Path 5176" d="M746.885,58.1a.637.637,0,0,0-1.2.42A11.712,11.712,0,0,1,738.5,73.438h0a11.87,11.87,0,0,1-1.975.5l.114-3.514a.562.562,0,0,0-.9-.466l-5.053,3.854a.564.564,0,0,0-.106.789.557.557,0,0,0,.078.083l4.795,4.172a.563.563,0,0,0,.932-.406l.1-3.222A12.957,12.957,0,0,0,746.89,58.1Z" transform="translate(331 -2677)" fill="#fff"/>
  </g>
</svg>
