<svg xmlns="http://www.w3.org/2000/svg" width="103.752" height="103.752" viewBox="0 0 103.752 103.752">
  <g id="Group_6472" data-name="Group 6472" transform="translate(-1128.733 2677)">
    <path id="Path_5177" data-name="Path 5177" d="M901.485,51.877A51.876,51.876,0,1,1,849.6,0a51.876,51.876,0,0,1,51.88,51.877Z" transform="translate(331 -2677)" fill="#ff6845"/>
    <path id="Path_5178" data-name="Path 5178" d="M860.491,58.62a2.3,2.3,0,0,1-3.163.61l-8.992-6.168V39.981a2.282,2.282,0,0,1,4.564,0V50.667l7,4.813a2.236,2.236,0,0,1,.587,3.14" transform="translate(331 -2677)" fill="#fff" fill-rule="evenodd"/>
    <path id="Path_5179" data-name="Path 5179" d="M874.611,51.865a23.587,23.587,0,1,1-47.174,0,23.313,23.313,0,0,1,.226-3.321,23.93,23.93,0,0,1,3.434-9.309l-3.931-2.62a1.218,1.218,0,0,1,.316-2.192l10.393-3.05a1.238,1.238,0,0,1,1.581,1.039l1.2,10.755a1.2,1.2,0,0,1-1.853,1.174l-3.909-2.6a19.038,19.038,0,0,0-2.846,7.976c-.068.7-.113,1.4-.113,2.146a19.069,19.069,0,0,0,38.137,0,17.908,17.908,0,0,0-.136-2.237A19.063,19.063,0,0,0,851.024,32.8a2.259,2.259,0,0,1,0-4.518,23.586,23.586,0,0,1,23.316,20.13,19.676,19.676,0,0,1,.271,3.457" transform="translate(331 -2677)" fill="#fff" fill-rule="evenodd"/>
  </g>
</svg>
