<svg xmlns="http://www.w3.org/2000/svg" width="103.752" height="103.752" viewBox="0 0 103.752 103.752">
  <g id="Group_6469" data-name="Group 6469" transform="translate(-755.106 2677)">
    <path id="Path_5157" data-name="Path 5157" d="M527.858,51.877A51.876,51.876,0,1,1,475.978,0a51.876,51.876,0,0,1,51.88,51.877Z" transform="translate(331 -2677)" fill="#ff6845"/>
    <path id="Path_5158" data-name="Path 5158" d="M497.494,30.433V41.321a6.041,6.041,0,0,0-.159,12.081h.159V64.3a2.743,2.743,0,0,1-2.738,2.744H457.213a2.745,2.745,0,0,1-2.744-2.744V53.4a6.041,6.041,0,0,0,.159-12.081h-.159V30.433a2.744,2.744,0,0,1,2.744-2.744h37.543a2.742,2.742,0,0,1,2.738,2.744" transform="translate(331 -2677)" fill="#fff"/>
    <path id="Path_5159" data-name="Path 5159" d="M465.752,72.386a2.926,2.926,0,1,1-2.927,2.927,2.927,2.927,0,0,1,2.927-2.927" transform="translate(331 -2677)" fill="#ffcdc7"/>
    <path id="Path_5160" data-name="Path 5160" d="M476.408,70.563a4.75,4.75,0,1,1-4.75,4.75,4.75,4.75,0,0,1,4.75-4.75" transform="translate(331 -2677)" fill="#fff"/>
    <path id="Path_5161" data-name="Path 5161" d="M487.064,72.386a2.926,2.926,0,1,1-2.927,2.927,2.927,2.927,0,0,1,2.927-2.927" transform="translate(331 -2677)" fill="#ffcdc7"/>
    <path id="Path_5162" data-name="Path 5162" d="M476.605,43.131l-.157,2.177a.371.371,0,0,1-.4.342h-.039l-1.592-.292a.372.372,0,0,0-.431.3.35.35,0,0,0-.006.066v6.728a.37.37,0,0,1-.37.37h-7.332a.371.371,0,0,1-.371-.37V45.726a.371.371,0,0,0-.437-.365l-1.59.291a.37.37,0,0,1-.431-.3v-.039l-.162-2.18a.372.372,0,0,1,.292-.388l3.981-.825a.28.28,0,0,1,.322.195,2.171,2.171,0,0,0,4.149-.005.277.277,0,0,1,.321-.195l3.971.83a.369.369,0,0,1,.292.388" transform="translate(331 -2677)" fill="#ff6845"/>
    <path id="Path_5163" data-name="Path 5163" d="M486.661,44.1h-6.6a.685.685,0,1,1-.054-1.369h6.653a.685.685,0,0,1,0,1.369" transform="translate(331 -2677)" fill="#ff6845"/>
    <path id="Path_5164" data-name="Path 5164" d="M488,48.047H480.06a.684.684,0,0,1,0-1.369H488a.684.684,0,1,1,0,1.369" transform="translate(331 -2677)" fill="#ff6845"/>
    <path id="Path_5165" data-name="Path 5165" d="M484.945,51.99h-4.884a.685.685,0,1,1-.054-1.369h4.938a.685.685,0,0,1,0,1.369" transform="translate(331 -2677)" fill="#ff6845"/>
    <path id="Path_5166" data-name="Path 5166" d="M502.169,47.365a4.671,4.671,0,1,1,0-.008Z" transform="translate(331 -2677)" fill="#fff"/>
    <path id="Path_5167" data-name="Path 5167" d="M459.144,47.365a4.671,4.671,0,1,1,0-.008Z" transform="translate(331 -2677)" fill="#fff"/>
    <path id="Path_5168" data-name="Path 5168" d="M455.441,50.4,452.4,47.358l3.038-3.038.726.726-2.3,2.305,2.3,2.3Z" transform="translate(331 -2677)" fill="#ff6845"/>
    <path id="Path_5169" data-name="Path 5169" d="M496.521,50.4l-.726-.726,2.3-2.3-2.3-2.305.726-.726,3.038,3.038Z" transform="translate(331 -2677)" fill="#ff6845"/>
  </g>
</svg>
