<svg xmlns="http://www.w3.org/2000/svg" width="103.752" height="103.752" viewBox="0 0 103.752 103.752">
  <g id="Group_6468" data-name="Group 6468" transform="translate(-625.072 2677)">
    <path id="Path_5148" data-name="Path 5148" d="M397.824,51.877A51.876,51.876,0,1,1,345.944,0a51.876,51.876,0,0,1,51.88,51.877Z" transform="translate(331 -2677)" fill="#ff6845"/>
    <path id="Path_5149" data-name="Path 5149" d="M324.9,30.206l15.454,22.318a6.472,6.472,0,0,1,1.149,3.67v7.5a1.6,1.6,0,0,0,.8,1.387l5.691,3.286a1.6,1.6,0,0,0,2.4-1.388V56.194a6.462,6.462,0,0,1,1.147-3.67L367,30.206a1.6,1.6,0,0,0-1.32-2.517h-39.46a1.6,1.6,0,0,0-1.32,2.517" transform="translate(331 -2677)" fill="#fff"/>
    <path id="Path_5150" data-name="Path 5150" d="M331.479,73.634a4.215,4.215,0,1,1-4.215,4.215,4.215,4.215,0,0,1,4.215-4.215" transform="translate(331 -2677)" fill="#ffcdc7"/>
    <path id="Path_5151" data-name="Path 5151" d="M345.528,73.634a4.215,4.215,0,1,1-4.215,4.215,4.215,4.215,0,0,1,4.215-4.215" transform="translate(331 -2677)" fill="#fff"/>
    <path id="Path_5152" data-name="Path 5152" d="M359.577,73.634a4.215,4.215,0,1,1-4.215,4.215,4.215,4.215,0,0,1,4.215-4.215" transform="translate(331 -2677)" fill="#ffcdc7"/>
  </g>
</svg>
