<svg xmlns="http://www.w3.org/2000/svg" width="103.752" height="103.752" viewBox="0 0 103.752 103.752">
  <g id="Group_6470" data-name="Group 6470" transform="translate(-871.347 2677)">
    <path id="Path_5143" data-name="Path 5143" d="M644.1,51.877A51.876,51.876,0,1,1,592.219,0,51.876,51.876,0,0,1,644.1,51.877Z" transform="translate(331 -2677)" fill="#ff6845"/>
    <path id="Path_5144" data-name="Path 5144" d="M612.524,41.1h0a5.263,5.263,0,1,0-5.266-5.259,5.277,5.277,0,0,0,5.266,5.259" transform="translate(331 -2677)" fill="#ffcdc7" fill-rule="evenodd"/>
    <path id="Path_5145" data-name="Path 5145" d="M600.875,34.991a8.683,8.683,0,0,1-4.821,7.8V38.542a4,4,0,0,0-2.5-3.86A3.865,3.865,0,0,0,590,35.1a4.124,4.124,0,0,0-1.775,3.547v4.091a8.809,8.809,0,0,1-4.74-7.743,8.694,8.694,0,1,1,17.387,0" transform="translate(331 -2677)" fill="#fff" fill-rule="evenodd"/>
    <path id="Path_5146" data-name="Path 5146" d="M571.923,41.1h0a5.263,5.263,0,1,0-5.267-5.259,5.277,5.277,0,0,0,5.267,5.259" transform="translate(331 -2677)" fill="#ffcdc7" fill-rule="evenodd"/>
    <path id="Path_5147" data-name="Path 5147" d="M608.549,59.477V67.4a4.263,4.263,0,0,1-1.043,3.026,5.286,5.286,0,0,0-1.67,4.174,7.24,7.24,0,0,1-.208,2.609,5.581,5.581,0,0,1-2.3.208H592.789a2.446,2.446,0,0,1-1.15-.208c-.21-.1-.21-.522-.21-1.151a5.957,5.957,0,0,0-2.921-5.426,10.7,10.7,0,0,1-1.878-1.878l-.1-.1-5.947-7.2a2.646,2.646,0,0,1,.185-3.736l.024-.021a2.628,2.628,0,0,1,3.652.21l1.151,1.15c.723.725,2.118,2.525,3.337,1.983,1.023-.456.733-1.632.732-2.535v-19.9a2.827,2.827,0,0,1,1.15-2.4A2.509,2.509,0,0,1,593.1,36a2.65,2.65,0,0,1,1.669,2.608V51.129a1.645,1.645,0,0,0,.418,1.253,1.535,1.535,0,0,0,1.252.417c1.774,0,2.087.208,2.812,2.087l.209.73.521-.313a3.209,3.209,0,0,1,4.071.94l.313.521.521-.313a2.587,2.587,0,0,1,2.087,0,2.447,2.447,0,0,1,1.15,1.151,4.169,4.169,0,0,1,.422,1.875" transform="translate(331 -2677)" fill="#fff"/>
  </g>
</svg>
