<svg xmlns="http://www.w3.org/2000/svg" width="103.752" height="103.752" viewBox="0 0 103.752 103.752">
  <g id="Group_6474" data-name="Group 6474" transform="translate(-478.036 2677)">
    <path id="Path_5153" data-name="Path 5153" d="M250.788,51.877A51.876,51.876,0,1,1,198.908,0a51.876,51.876,0,0,1,51.88,51.877Z" transform="translate(331 -2677)" fill="#ff6845"/>
    <path id="Path_5154" data-name="Path 5154" d="M170.06,40.721a2.111,2.111,0,0,1,1.667-.84,1.946,1.946,0,0,1,2.3,1.952q1.23,8.5,2.672,14.4l5.794-11.306a2.521,2.521,0,0,1,1.984-1.626c1.164-.082,1.879.677,2.17,2.277a51.624,51.624,0,0,0,2.513,9.272q1.032-10.329,3.492-14.911a2.031,2.031,0,0,1,1.746-1.193,2.261,2.261,0,0,1,1.667.542,2.138,2.138,0,0,1,.82,1.545,2.4,2.4,0,0,1-.264,1.3c-1.032,1.952-1.879,5.232-2.567,9.787a51.711,51.711,0,0,0-.74,10.329,3.285,3.285,0,0,1-.318,1.79,1.706,1.706,0,0,1-1.4.976,2.635,2.635,0,0,1-2.09-1q-3.69-3.863-5.847-11.549-2.579,5.205-3.809,7.808c-1.561,3.064-2.884,4.636-3.995,4.717-.715.055-1.323-.569-1.852-1.87q-2.023-5.328-4.365-20.578a2.466,2.466,0,0,1,.423-1.816" transform="translate(331 -2677)" fill="#fff"/>
    <path id="Path_5155" data-name="Path 5155" d="M226.939,44.978a6.1,6.1,0,0,0-4.232-3.145,6.814,6.814,0,0,0-1.429-.162c-2.54,0-4.6,1.355-6.217,4.065A14.639,14.639,0,0,0,213,53.382a10.707,10.707,0,0,0,1.27,5.368A6.109,6.109,0,0,0,218.5,61.9a6.81,6.81,0,0,0,1.429.161c2.566,0,4.629-1.355,6.217-4.065a14.811,14.811,0,0,0,2.063-7.673,10.455,10.455,0,0,0-1.27-5.341m-3.333,7.509A7.229,7.229,0,0,1,221.6,56.5a2.508,2.508,0,0,1-2.143.868c-.634-.136-1.164-.705-1.56-1.763a7.022,7.022,0,0,1-.477-2.466,9.6,9.6,0,0,1,.186-1.979,8.867,8.867,0,0,1,1.4-3.227c.873-1.329,1.8-1.87,2.751-1.682.635.137,1.164.706,1.561,1.763a7.04,7.04,0,0,1,.476,2.468,11.963,11.963,0,0,1-.185,2.005" transform="translate(331 -2677)" fill="#fff"/>
    <path id="Path_5156" data-name="Path 5156" d="M210.351,44.978a6.159,6.159,0,0,0-4.232-3.145,6.814,6.814,0,0,0-1.429-.162c-2.54,0-4.6,1.355-6.217,4.065a14.639,14.639,0,0,0-2.064,7.646,10.7,10.7,0,0,0,1.27,5.368,6.109,6.109,0,0,0,4.233,3.146,6.81,6.81,0,0,0,1.429.161c2.566,0,4.629-1.355,6.217-4.065a14.811,14.811,0,0,0,2.063-7.673,10.455,10.455,0,0,0-1.27-5.341m-3.333,7.509a7.229,7.229,0,0,1-2.011,4.013,2.508,2.508,0,0,1-2.143.868c-.634-.136-1.164-.705-1.56-1.763a7.021,7.021,0,0,1-.477-2.466,9.6,9.6,0,0,1,.186-1.979,8.867,8.867,0,0,1,1.4-3.227c.873-1.329,1.8-1.87,2.751-1.682.635.137,1.164.706,1.561,1.763a7.04,7.04,0,0,1,.476,2.468,9.744,9.744,0,0,1-.185,2.005" transform="translate(331 -2677)" fill="#fff"/>
  </g>
</svg>
