<svg xmlns="http://www.w3.org/2000/svg" xmlns:xlink="http://www.w3.org/1999/xlink" width="103.752" height="103.752" viewBox="0 0 103.752 103.752">
  <defs>
    <clipPath id="clip-path">
      <rect id="Rectangle_4774" data-name="Rectangle 4774" width="28.562" height="34.281" transform="translate(33.075 33.985)" fill="none"/>
    </clipPath>
  </defs>
  <g id="Group_6475" data-name="Group 6475" transform="translate(-331 2677)">
    <path id="Path_5133" data-name="Path 5133" d="M103.752,51.877A51.876,51.876,0,1,1,51.872,0a51.876,51.876,0,0,1,51.88,51.877Z" transform="translate(331 -2677)" fill="#ff6845"/>
    <path id="Path_5134" data-name="Path 5134" d="M71.458,67.536v-.01l-1.9-10.19a6.521,6.521,0,0,1-1.36.5l-.19.03a5.658,5.658,0,0,1-2.17,0,6.575,6.575,0,0,1,1.53,3.68c.35,4.02-2.5,7.09-5.7,9.08a18.652,18.652,0,0,1-5.57,2.26,5.543,5.543,0,0,1-5.03-.77,1.085,1.085,0,0,1-.26-1.53,1.039,1.039,0,0,1,.4-.35c2.08-.94,2.33-3.54,2.34-5.55,0-2.39-.22-4.92,1.08-7.06a6.126,6.126,0,0,1,7.38-2.33,6.3,6.3,0,0,1-.85-2.12l-.03-.22a5.82,5.82,0,0,1,1.22-4.51l4.51-5.66-2.53-13.6a6.784,6.784,0,0,0-7.91-5.44L31.958,28.3a6.8,6.8,0,0,0-5.43,7.91l7.12,38.35a6.791,6.791,0,0,0,7.91,5.45l24.47-4.54a6.8,6.8,0,0,0,5.43-7.93m-32.05-35.61a.975.975,0,0,1,0,1.95.975.975,0,1,1,0-1.95m-3.29.61a.975.975,0,0,1,0,1.95.975.975,0,1,1,0-1.95m-4.27,1.58a.975.975,0,1,1,.98.98.973.973,0,0,1-.98-.98" transform="translate(331 -2677)" fill="#fff"/>
    <g id="Group_6467" data-name="Group 6467" transform="translate(331 -2677)" opacity="0.649">
      <g id="Group_6466" data-name="Group 6466">
        <g id="Group_6465" data-name="Group 6465" clip-path="url(#clip-path)">
          <path id="Path_5135" data-name="Path 5135" d="M33.471,38.692l9.735-1.81a.484.484,0,0,1,.565.388l1.81,9.736a.483.483,0,0,1-.388.564l-9.735,1.81a.485.485,0,0,1-.565-.388l-1.81-9.735a.485.485,0,0,1,.388-.565" fill="#ffb3a9"/>
          <path id="Path_5136" data-name="Path 5136" d="M49.006,35.8l9.735-1.81a.484.484,0,0,1,.565.388l1.81,9.736a.483.483,0,0,1-.388.564l-9.735,1.81a.485.485,0,0,1-.565-.388l-1.81-9.735a.485.485,0,0,1,.388-.565" fill="#ffb3a9"/>
          <path id="Path_5137" data-name="Path 5137" d="M35.5,51.014l10.235-1.9a.233.233,0,0,1,.269.186l.091.49a.23.23,0,0,1-.184.268l-10.236,1.9a.23.23,0,0,1-.268-.184l-.091-.491a.23.23,0,0,1,.184-.269" fill="#ffb3a9"/>
          <path id="Path_5138" data-name="Path 5138" d="M51.039,48.128l10.235-1.9a.231.231,0,0,1,.269.185l.091.49a.23.23,0,0,1-.184.268l-10.236,1.9a.23.23,0,0,1-.268-.184l-.091-.491a.229.229,0,0,1,.184-.268" fill="#ffb3a9"/>
          <path id="Path_5139" data-name="Path 5139" d="M38.535,67.319l10.235-1.9a.231.231,0,0,1,.269.185l.091.49a.23.23,0,0,1-.184.268l-10.236,1.9a.23.23,0,0,1-.268-.184l-.091-.491a.229.229,0,0,1,.184-.268" fill="#ffb3a9"/>
          <path id="Path_5140" data-name="Path 5140" d="M36.509,55.034l9.735-1.81a.484.484,0,0,1,.565.388l1.81,9.736a.483.483,0,0,1-.388.564L38.5,65.722a.485.485,0,0,1-.565-.388L36.121,55.6a.485.485,0,0,1,.388-.565" fill="#ffb3a9"/>
        </g>
      </g>
    </g>
    <path id="Path_5141" data-name="Path 5141" d="M81.033,35.371,70.1,53.957a3.734,3.734,0,0,1-.958,1.094,3.843,3.843,0,0,1-1.4.64,3.773,3.773,0,0,1-2.874-.565,3.673,3.673,0,0,1-.8-5.305l3.33-4.193L77.5,32.916a2.119,2.119,0,0,1,1.285-.775,2.157,2.157,0,0,1,2.25,3.23" transform="translate(331 -2677)" fill="#fff"/>
    <path id="Path_5142" data-name="Path 5142" d="M65.21,62.617a6.885,6.885,0,0,1-2.531,4.537,15.6,15.6,0,0,1-5.319,3.107,8.841,8.841,0,0,1-3.49.693,7.665,7.665,0,0,0,1.695-3.644c.455-2.363-.163-4.838.387-7.175a3.794,3.794,0,0,1,2.825-2.966,5.668,5.668,0,0,1,4.434,1.143,4.846,4.846,0,0,1,2,4.305" transform="translate(331 -2677)" fill="#fff"/>
  </g>
</svg>
