<?xml version="1.0" encoding="utf-8"?>
<!-- Generator: Adobe Illustrator 27.5.0, SVG Export Plug-In . SVG Version: 6.00 Build 0)  -->
<svg version="1.1" id="Layer_1" xmlns="http://www.w3.org/2000/svg" xmlns:xlink="http://www.w3.org/1999/xlink" x="0px" y="0px"
	 viewBox="0 0 128 128" style="enable-background:new 0 0 128 128;" xml:space="preserve">
<style type="text/css">
	.st0{fill-rule:evenodd;clip-rule:evenodd;fill:url(#SVGID_1_);}
	.st1{fill-rule:evenodd;clip-rule:evenodd;fill:url(#SVGID_00000007402699745772811940000010385792650411713969_);}
	.st2{fill-rule:evenodd;clip-rule:evenodd;fill:#FFFFFF;}
	.st3{fill:url(#Group_2211_00000027579141603074830590000008572117886204104334_);}
</style>
<g>
	<g>
		
			<linearGradient id="SVGID_1_" gradientUnits="userSpaceOnUse" x1="2.6147" y1="128.4874" x2="126.0982" y2="2.7869" gradientTransform="matrix(1 0 0 -1 0 130)">
			<stop  offset="0" style="stop-color:#FF7FAA"/>
			<stop  offset="1" style="stop-color:#FF3D78"/>
		</linearGradient>
		<rect class="st0" width="128" height="128"/>
	</g>
	
		<linearGradient id="SVGID_00000055686113405346728500000008396705548977263278_" gradientUnits="userSpaceOnUse" x1="125.4724" y1="-5.556094e-02" x2="59.6293" y2="72.4384" gradientTransform="matrix(1 0 0 -1 0 130)">
		<stop  offset="0" style="stop-color:#000000;stop-opacity:0"/>
		<stop  offset="0.9654" style="stop-color:#000000;stop-opacity:0.1931"/>
		<stop  offset="1" style="stop-color:#000000;stop-opacity:0.2"/>
	</linearGradient>
	
		<polygon style="fill-rule:evenodd;clip-rule:evenodd;fill:url(#SVGID_00000055686113405346728500000008396705548977263278_);" points="
		128,64.4 128,128 64.4,128 32.2,95.8 95.8,32.2 	"/>
	<g>
		<path class="st2" d="M109,63.8V64c0,2.3-0.2,4.6-0.5,6.9c-0.1,0.5-0.2,1.1-0.3,1.6c-1.7,9-6.2,17.1-12.4,23.3
			c-1.5,1.5-3.2,2.9-4.9,4.2c-0.4,0.3-0.8,0.6-1.3,0.9c-1.9,1.3-3.9,2.5-6,3.5c-1.4,0.7-2.8,1.3-4.3,1.8c-2,0.7-4,1.3-6.1,1.7
			c-0.3,0-0.5,0.1-0.8,0.2c-1.9,0.4-3.9,0.6-5.9,0.7c-0.9,0-1.7,0.1-2.6,0.1c-0.7,0-1.4,0-2.1,0c-11.6-0.5-22.1-5.5-29.8-13.1
			C24,87.7,19,76.4,19,64s5-23.7,13.2-31.8S51.6,19,64,19c24.6,0,44.6,19.8,45,44.3C109,63.5,109,63.6,109,63.8z"/>
	</g>
	
		<linearGradient id="Group_2211_00000070114387009239265970000013814056197293302689_" gradientUnits="userSpaceOnUse" x1="-61.3956" y1="42.0919" x2="-113.1719" y2="87.1948" gradientTransform="matrix(1 0 0 -1 144.616 130)">
		<stop  offset="0" style="stop-color:#FF3D78"/>
		<stop  offset="1" style="stop-color:#FF7FAA"/>
	</linearGradient>
	<path id="Group_2211" style="fill:url(#Group_2211_00000070114387009239265970000013814056197293302689_);" d="M32.7,80.7
		L32.7,80.7c0-0.3,0.2-0.6,0.5-0.7c0.8-0.1,1.7-0.4,2.4-0.9c1.2-1.1,2.1-2.5,2.6-4.1c1.4-3.9,8.3-24.5,10.1-29.9
		c0.1-0.3,0.3-0.4,0.6-0.4h2.6c0.3,0,0.5,0.2,0.6,0.4c2.3,6.8,9.7,29.2,10.4,31.5c0.3,1,1,1.9,1.8,2.5c0.7,0.4,1.5,0.8,2.3,0.9
		c0.3,0.1,0.5,0.3,0.5,0.6l0,0c0,0.4-0.3,0.6-0.6,0.6l0,0H50.9c-0.4,0-0.6-0.3-0.6-0.6c0-0.3,0.2-0.6,0.5-0.6c1.6-0.2,3.9-0.9,3.9-2
		c0-0.4,0-0.8-0.2-1.1l-2.1-6.5c-0.3-0.8-1-1.3-1.8-1.3h-7c-0.9,0-1.6,0.6-1.9,1.4c-0.4,1.4-0.9,3.2-1.1,3.6
		c-0.3,1.1-0.5,2.2-0.5,3.3c0,1.7,2.8,2.5,4.5,2.7c0.3,0,0.5,0.3,0.5,0.6l0,0c0,0.4-0.3,0.6-0.6,0.6l0,0H33.4
		C33,81.3,32.7,81,32.7,80.7L32.7,80.7 M43.6,67h6.7c0.4,0,0.6-0.3,0.6-0.6c0-0.1,0-0.1,0-0.2l-3.4-10.1c-0.1-0.3-0.5-0.5-0.8-0.4
		c-0.2,0.1-0.3,0.2-0.4,0.4L43,66.2c-0.1,0.3,0.1,0.7,0.4,0.8C43.5,67,43.6,67,43.6,67 M90.7,73.4c0.3,0.1,0.5,0.5,0.4,0.8
		c-1.7,4.6-3.8,7.6-7.1,7.6c-2.8,0-5.3-1.3-5.4-4.7h-0.1c-1.7,2.6-3.5,4.7-6.7,4.7c-2.8,0-5.6-1.9-5.6-8.4c0-9.2,6.7-17,13.1-17
		c1.9-0.1,3.6,1.3,3.9,3.3h0.1l0.3-0.8c0.4-1.1,1.4-1.8,2.6-1.8h3.9c0.4,0,0.6,0.3,0.6,0.6c0,0.1,0,0.1,0,0.2l-5.1,16.5
		c-0.6,1.6-1,3.2-1.3,4.9c0,0.4,0.2,0.7,0.6,0.7H85c1.9,0,3.4-2.2,4.9-6.3C89.9,73.4,90.3,73.3,90.7,73.4L90.7,73.4L90.7,73.4z
		 M82.6,61.9c0-0.1,0-0.2,0-0.3c-0.4-2.1-1.1-3.1-2.5-3.1c-3.7,0-7.3,11.8-7.3,18.6c0,1.5,0.7,2.2,1.3,2.2c1.1,0,2-0.8,3-2
		c1-1.4,1.8-2.9,2.3-4.6L82.6,61.9z"/>
</g>
</svg>
