<svg version="1.1" id="Layer_1" xmlns="http://www.w3.org/2000/svg" xmlns:xlink="http://www.w3.org/1999/xlink" x="0" y="0" viewBox="0 0 300 350" style="enable-background:new 0 0 300 350" xml:space="preserve"><style>.st0{fill:#aedaff}.st1{fill:#fff}.st2{fill:#76c8ff}.st3{fill:#d2efff}.st9{opacity:.57}.st17{fill:#f6bb8f}.st18{fill:#bf7640}.st24{fill:none}.st26{fill:#57b4dd}.st27{fill:#a0daea}</style><path class="st0" d="M217.8 48.3v247.8c0 3.1-1.4 5.8-3.6 7.7-.5.5-1.1.9-1.7 1.2-1.4.8-3.1 1.2-4.8 1.2H10.1c-5.6 0-10.1-4.5-10.1-10.1V48.3c0-5.6 4.5-10.1 10.1-10.1h197.6c5.6 0 10.1 4.6 10.1 10.1z" id="Group_457"/><g id="Group_458"><path id="Path_88" class="st1" d="M20 286.1 13.4 51.6h191.1v241.3L20 286.1z"/></g><g id="Group_459"><path id="Path_89" class="st2" d="M64.2 46.9s-2.5 10.9-5.6 4.6c-5.5-11.2-4-13.3-4-13.3h7.6l2 8.7z"/></g><g id="Group_460"><path id="Path_90" class="st0" d="M125.8 25.3c3.9-9.3-.6-20-9.9-23.9-9.3-3.9-20 .6-23.9 9.9-1.9 4.5-1.9 9.6.1 14.1.9 2.3-.2 4.9-2.4 5.8-.5.2-1.1.3-1.7.3H72.7c-7.8 0-14.1 6.3-14.1 14.1v5.8c0 3.1 2.5 5.6 5.6 5.6h89.4c3.1 0 5.6-2.5 5.6-5.6v-5.8c0-7.8-6.3-14.1-14.1-14.1h-15.2c-2.5 0-4.5-2-4.5-4.5 0-.6.2-1.2.4-1.7z"/></g><g id="Group_461"><path id="Path_91" class="st1" d="M153.6 52.9H64.2c-.5 0-.8-.4-.8-.8 0-.5.4-.8.8-.8h89.2v-5.6c0-4.6-3.7-8.3-8.3-8.3-.5 0-.8-.4-.8-.8 0-.5.4-.8.8-.8 5.5 0 9.9 4.5 10 10v5.8c0 .7-.7 1.4-1.5 1.3z"/></g><g id="Group_462"><circle id="Ellipse_9" class="st1" cx="108.9" cy="15.5" r="4.4"/></g><g id="Group_463"><path id="Path_92" class="st3" d="M109.1 171.2H29.5l-.7-22.4L27.1 99h79.6l.5 15 1.9 57.2z"/></g><g id="Group_472"><g id="Group_464"><path id="Path_93" class="st3" d="M192.3 123.2h-3.4v-1.7h1.6l-.1-1.6 1.7-.1.2 3.4z"/></g><g id="Group_465"><path id="Path_94" class="st3" d="M183.9 123.2h-5v-1.7h5v1.7zm-10 0h-5v-1.7h5v1.7zm-9.9 0h-5v-1.7h5v1.7zm-10 0h-5v-1.7h5v1.7zm-9.9 0h-5v-1.7h5v1.7zm-10 0h-5v-1.7h5v1.7zm-9.9 0h-5v-1.7h5v1.7z"/></g><g id="Group_466"><path id="Path_95" class="st3" d="M114.2 123.2h-3.3l-.2-3.3 1.7-.1.1 1.7h1.7v1.7z"/></g><g id="Group_467"><path id="Rectangle_565" transform="rotate(-2.933 111.147 110.655) scale(1.00001)" class="st3" d="M110.3 107.6h1.7v6.1h-1.7z"/></g><g id="Group_468"><path id="Path_96" class="st3" d="m109.8 101.5-.2-3.4h3.4v1.7h-1.6l.1 1.6-1.7.1z"/></g><g id="Group_469"><path id="Path_97" class="st3" d="M182.7 99.8h-5v-1.7h5v1.7zm-10 0h-5v-1.7h5v1.7zm-9.9 0h-5v-1.7h5v1.7zm-10 0h-5v-1.7h5v1.7zm-9.9 0h-5v-1.7h5v1.7zm-10 0h-5v-1.7h5v1.7zm-9.9 0h-5v-1.7h5v1.7z"/></g><g id="Group_470"><path id="Path_98" class="st3" d="m189.4 101.5-.1-1.7h-1.7v-1.7h3.3l.1 3.3-1.6.1z"/></g><g id="Group_471"><path id="Rectangle_566" transform="rotate(-1.952 190.516 110.672) scale(.99998)" class="st3" d="M189.7 107.6h1.7v6.1h-1.7z"/></g></g><g id="Group_473"><path id="Path_99" class="st3" d="m192.3 170.9-78.8.2-1.4-44.9h79.6l.5 15 .1 29.7z"/></g><g id="Group_474"><path id="Path_100" class="st2" d="m13.4 51.6-1.5 241.3h192.6L20 286.1 13.4 51.6z"/></g><g id="Group_478"><g id="Group_475"><circle id="Ellipse_10" cx="21" cy="58.6" r="2.3" style="fill:#ff8080"/></g><g id="Group_476"><circle id="Ellipse_11" cx="28.3" cy="58.6" r="2.3" style="fill:#ffbf40"/></g><g id="Group_477"><circle id="Ellipse_12" cx="35.2" cy="58.6" r="2.3" style="fill:#52dd91"/></g></g><g id="Group_479"><path id="Path_101" d="M36.7 86.9H14.4l-.6-22.2h22.5l.4 22.2z" style="fill:#4874ff"/></g><g id="Group_480"><path id="Path_102" d="M204.5 65.2v21.1l-167.8.6-.4-22.2 168.2.5z" style="fill:#f2f2f2"/></g><g id="Group_482"><g id="Group_481"><path id="Path_103" class="st1" d="M18 75.8c0-4 3.2-7.2 7.2-7.2s7.2 3.2 7.2 7.2-3.2 7.2-7.2 7.2-7.2-3.2-7.2-7.2zm10.3 5.7c.5-.2.9-.6 1.3-.9 1.2-1.1 2-2.7 2.1-4.4.1-1-.1-1.9-.5-2.8-.1-.2-.2-.5-.3-.7v.1c.1.7 0 1.5-.3 2.2-.8 2.1-1.5 4.2-2.3 6.4v.1zm.1-2c.1-.3.2-.6.3-1 .3-.7.5-1.5.7-2.2.2-.9.1-1.9-.4-2.7-.4-.7-1.1-1.4-.3-2.2.2-.2.6-.3.9-.3-2.6-2.4-6.7-2.3-9.1.3-.2.3-.5.5-.7.8H22c.1 0 .2 0 .2.2v.3c0 .1 0 .1-.1.1h-.8l2.3 6.6c.4-1.2.8-2.4 1.3-3.6v-.2l-.9-2.7c0-.1-.1-.1-.2-.1h-.7c-.1 0-.1 0-.1-.1v-.4c0-.1 0-.1.1-.1h3.8c.1 0 .1 0 .1.1v.4c0 .1 0 .1-.1.1h-.8l2.3 6.7zm-3.2-2.8v.1c-.6 1.7-1.3 3.4-1.9 5.1 0 .1 0 .1.1.2 1.2.4 2.5.4 3.6 0 .1 0 .1-.1.1-.2-.4-1.1-.8-2.3-1.2-3.4-.2-.6-.5-1.2-.7-1.8zm-3.1 4.9-2.9-8.3c-1.3 3.1 0 6.7 2.9 8.3z"/></g></g><g id="Group_484" class="st9"><g id="Group_483"><path id="Path_104" class="st1" d="M109.1 171.2H29.5l-.7-22.4c2-4.3 4.7-8.3 7.9-11.9 3.7-4.2 9.3-8 14.5-6 4.7 1.8 7.2 7.6 12 8.5 4.1.8 8-2.4 10.1-6 2.1-3.6 2.9-7.9 4.9-11.5 4.1-7.3 12.1-11.5 20.5-10.9 3 .3 5.9 1.3 8.5 2.9l1.9 57.3z"/></g></g><g id="Group_545" class="st9"><circle id="Ellipse_13" class="st1" cx="58.6" cy="117" r="7.5"/></g><g id="Group_567" style="opacity:.63"><g id="Group_566"><g id="Group_565"><g id="Group_564"><defs><path id="SVGID_1_" d="m128.8 75.7-.1-2.7c0-.5-.4-.8-.8-.8h-3.1v-.1c0-.5-.4-.8-.8-.8h-3c-.5 0-.8.4-.8.8v3c0 .5.4.8.8.8h.1v2.7c0 .5.4.8.8.8h3.1v.1c0 .5.4.8.8.8h3c.5 0 .8-.4.8-.8v-3c.1-.4-.3-.8-.8-.8z"/></defs><clipPath id="SVGID_2_"><use xlink:href="#SVGID_1_" style="overflow:visible"/></clipPath><g id="Group_563" style="clip-path:url(#SVGID_2_)"><g id="Group_562"><g id="Group_549"><image style="overflow:visible;opacity:.2;enable-background:new" width="281" height="281" id="Rectangle_569" xlink:href="947E3AE4757652F.png" transform="translate(119.625 69.95) scale(.02411)"/><g id="Group_548"><g id="Group_547"><g id="Group_546"><path id="Rectangle_570" d="M121.2 71.3h3c.5 0 .8.4.8.8v3c0 .5-.4.8-.8.8h-3c-.5 0-.8-.4-.8-.8v-3c0-.4.3-.8.8-.8z" style="fill:#037fff"/></g></g></g></g><g id="Group_553"><image style="overflow:visible;opacity:.2;enable-background:new" width="281" height="282" id="Rectangle_571" xlink:href="947E3AE4757652D.png" transform="translate(123.192 70.818) scale(.02411)"/><g id="Group_552"><g id="Group_551"><g id="Group_550"><path id="Rectangle_572" d="M125 72.2h3c.5 0 .8.4.8.8v3c0 .5-.4.8-.8.8h-3c-.5 0-.8-.4-.8-.8v-3c0-.4.4-.8.8-.8z" style="fill:#3babff"/></g></g></g></g><g id="Group_557"><image style="overflow:visible;opacity:.2;enable-background:new" width="282" height="281" id="Rectangle_573" xlink:href="947E3AE47576533.png" transform="translate(124.328 74.163) scale(.02411)"/><g id="Group_556"><g id="Group_555"><g id="Group_554"><path id="Rectangle_574" d="M125.9 75.7h3c.5 0 .8.4.8.8v3c0 .5-.4.8-.8.8h-3c-.5 0-.8-.4-.8-.8v-3c0-.4.3-.8.8-.8z" style="fill:#69c6ff"/></g></g></g></g><g id="Group_561"><image style="overflow:visible;opacity:.2;enable-background:new" width="282" height="282" id="Rectangle_575" xlink:href="947E3AE47576535.png" transform="translate(120.694 73.382) scale(.02411)"/><g id="Group_560"><g id="Group_559"><g id="Group_558"><path id="Rectangle_576" d="M122.1 74.9h3c.5 0 .8.4.8.8v3c0 .5-.4.8-.8.8h-3c-.5 0-.8-.4-.8-.8v-3c-.1-.5.3-.8.8-.8z" style="fill:#71deff"/></g></g></g></g></g></g></g></g></g></g><g id="Group_568"><path id="Path_128" class="st1" d="M149.8 78.9h-14.9l-.2-7h14.9l.2 7z"/></g><g id="Group_569"><path id="Path_129" class="st1" d="M169.9 78.9H155l-.2-7h14.9l.2 7z"/></g><g id="Group_570"><path id="Path_130" class="st0" d="M196.9 78.9h-21.8l-.3-7h21.8l.3 7z"/></g><g id="Group_571"><path id="Path_131" class="st0" d="M47.8 79.2h-5c-.5 0-.8-.4-.9-.8l-.2-5.1c0-.4.3-.8.8-.8h5c.5 0 .8.4.9.8l.2 5.1c0 .4-.3.8-.8.8z"/></g><g id="Group_572"><path id="Path_132" class="st0" d="M59.8 79.2h-5c-.5 0-.8-.4-.9-.8l-.2-5.1c0-.4.3-.8.8-.8h5c.5 0 .8.4.9.8l.2 5.1c0 .4-.3.8-.8.8z"/></g><g id="Group_573"><path id="Path_133" class="st0" d="M71.9 79.2h-5c-.5 0-.8-.4-.9-.8l-.2-5.1c0-.4.3-.8.8-.8h5c.5 0 .8.4.9.8l.2 5.1c0 .4-.4.8-.8.8z"/></g><g id="Group_574"><path id="Path_134" class="st0" d="M83.9 79.2h-5c-.5 0-.8-.4-.9-.8l-.2-5.1c0-.4.3-.8.8-.8h5c.5 0 .8.4.9.8l.2 5.1c0 .4-.3.8-.8.8z"/></g><g id="Group_544"><path class="st2" d="m207.5 264.9-3.1 11.1-.4 1.4-.6 2.1-3 11-.6 2.3v.2l-3.7 13.4-.4 1.5-.6-1.5h-21.2l-5-13.4-.1-.2c-.1-.4-.2-.7-.3-1.1-.5-2.2.1-4.6 1.5-6.4l3.2-4c1.2-1.5 1.8-3.5 1.4-5.5l-4.1-24.5c-.5-3.1-1.8-6-3.8-8.5l-41-51.7 11.1-3.3 58.6 39.4 3 9.4 6.1 19 3 9.3z" id="Group_485" style="opacity:.24"/><g id="Group_534"><g id="Group_487"><g id="Group_486"><path id="Path_106" class="st17" d="m254.4 155.3-.3 24.9-.3 28.2-.1 8.9c0 2.1.3 4.2.9 6.2l8.4 28.9-65 29.4-17.3-39c-1-2.2-2.4-4.2-4.2-5.8l-49.4-44.8-1.5-1.5 18.3-25.5 5.7 9.7c2.1 3.6 6.4 5.2 10.4 4l10.4-3.1c4.8-1.5 7.5-6.5 6-11.3 0-.1-.1-.2-.1-.3l-8.3-24.1c-1.2-3.4-4.4-5.6-8-5.5l-5.2.2-23.5-8.2-3.4-6.3 43-3.2c.3 0 .6 0 .8.2l4.2 2.3c.7.4 1.6.1 2-.6.1-.1.1-.2.1-.4l.6-2.3c.2-.6.7-1.1 1.3-1.1l11-.6c.4 0 .8.1 1.1.4l2.2 2c.6.5 1.5.5 2.1-.1.1-.1.2-.2.2-.4l.9-2c.3-.5.8-.9 1.4-.8l12.7.8c.4 0 .8.2 1 .5l5.1 6c.5.6 1.4.7 2 .2l.1-.1 1.1-1.1 4.9-1.1c2.9-.7 6 .1 8.2 2.2l9.4 8.6c7.2 6.6 11.2 15.9 11.1 25.6z"/></g></g><g id="Group_489"><g id="Group_488"><path id="Path_107" class="st18" d="m207.3 161.7-1.8.4-3.1-13.5-26.3-28.4 1.3-1.2 26.7 28.8 3.2 13.9z"/></g></g><g id="Group_491"><g id="Group_490"><path id="Path_108" class="st18" d="m228.6 156.9-1.8.4-1.8-7.8-29.7-32.3 1.3-1.2 30 32.6 2 8.3z"/></g></g><g id="Group_493" style="opacity:.55"><g id="Group_492"><path id="Path_109" d="m245.2 196.8-5.2 10c-.8 1.5-2.7 2.1-4.2 1.3-.1 0-.1-.1-.2-.1l-60.2-36c1.1-1.9 1.5-4.1 1.1-6.3l5.1-1.2 62 28c1.6.7 2.3 2.6 1.6 4.1.1.1.1.2 0 .2z" style="fill:#efa16c"/></g></g><g id="Group_495"><g id="Group_494"><path id="Path_110" class="st18" d="m236.4 143.2-3.5-7.2-16.3-15.5 1.2-1.3 16.5 15.7 3.7 7.5-1.6.8z"/></g></g><g id="Group_521"><g id="Group_498"><g id="Group_497"><g id="Group_496"><path id="Path_111" d="m98.6 115.6-7.5 20.8-1.2-.9-11.2-10.8 2.8-8.1 15-1.1c.7-.1 1.4 0 2.1.1z" style="fill:#ffc586"/></g></g></g><g id="Group_501"><g id="Group_500"><g id="Group_499"><path id="Path_112" d="m236.9 168.8-3.4 10.8c-.9 2.7-3.7 4.2-6.4 3.4h-.1l-5.3-1.8-5-1.7L93 137.4c-.7-.2-1.3-.5-1.9-.9l7.5-20.8 1.2.3 123.8 43 4.7 1.6 5.4 1.9c2.6.8 4 3.7 3.2 6.3z" style="fill:#3623c1"/></g></g></g><g id="Group_504"><g id="Group_503"><g id="Group_502"><path id="Path_113" d="m81.4 116.6-2.8 8.1-7-6.7c-.1-.1-.1-.4 0-.5.1-.1.1-.1.2-.1l9.6-.8z" style="fill:#232323"/></g></g></g><g id="Group_509"><g id="Group_506"><g id="Group_505"><path id="Line_6" class="st24" d="m93.4 130 140.5 48.3"/></g></g><g id="Group_508"><g id="Group_507"><path id="Rectangle_567" transform="rotate(-70.987 163.653 154.159)" class="st1" d="M163.1 79.9h1.2v148.5h-1.2z"/></g></g></g><g id="Group_514"><g id="Group_511"><g id="Group_510"><path id="Line_7" class="st24" d="m96.2 122.7 140 48.2"/></g></g><g id="Group_513"><g id="Group_512"><path id="Rectangle_568" transform="rotate(-70.998 166.153 146.752)" class="st1" d="M165.6 72.6h1.2v148.3h-1.2z"/></g></g></g><g id="Group_517"><g id="Group_516"><g id="Group_515"><path id="Path_114" class="st1" d="m228.2 160.5-6.6 20.6-5-1.7 6.9-20.5 4.7 1.6z"/></g></g></g><g id="Group_520"><g id="Group_519"><g id="Group_518"><path id="Path_115" d="m236.9 168.8-3.4 10.8c-.9 2.7-3.7 4.2-6.4 3.4h-.1l-5.3-1.8 6.6-20.6 5.4 1.9c2.6.8 4 3.7 3.2 6.3z" style="fill:#e04e4d"/></g></g></g></g><g id="Group_523"><g id="Group_522"><path id="Path_116" class="st17" d="m143.9 165.4-18.3 25.5c-2.9-3.2-4.8-7.2-5.4-11.5l-6.4-46.2 5.4-.2c3.3-.1 6.5 1.6 8.1 4.5l16.6 27.9z"/></g></g><g id="Group_525"><g id="Group_524"><path id="Path_117" class="st17" d="M157.5 112.2z"/></g></g><g id="Group_527"><g id="Group_526"><path id="Path_118" class="st17" d="m154.7 135-8.7.3c-6.2.2-11.9-3.1-14.8-8.5l23.5 8.2z"/></g></g><g id="Group_529"><g id="Group_528"><path id="Path_119" class="st1" d="M115.6 134.8s5.1-.8 6.8 2.2c1 2.1 1.5 4.4 1.6 6.7.1 1.2-.8 2.3-2 2.4l-4.8.7-1.6-12z"/></g></g><g id="Group_531"><g id="Group_530"><path id="Path_120" class="st1" d="m133.2 121.2 1.3 2.7c.5 1 1.5 1.7 2.6 1.7h2.7c1.8 0 3.2-1.5 3.2-3.2 0-.2 0-.4-.1-.6l-.1-.3c0-.1-.1-.2-.2-.2l-9.4-.1z"/></g></g><g id="Group_533"><g id="Group_532"><path id="Path_121" class="st17" d="M159.1 159.8s-3.2 10.6.1 14.4c3.3 3.8 10-4.4 10.5-10.8l-10.6-3.6z"/></g></g></g><g id="Group_536"><path class="st2" d="M296.2 315c-.1 0-.2.1-.3.1l-10.8 4.9-1.9.8-15.4 7-1.9.8-15.7 7.1-1.9.8-16.2 7.4-1.9.8-10 4.5c-3.5 1.6-7.5 0-9.1-3.4 0-.1-.1-.1-.1-.2l-15.7-38-.6-1.5-4.7-11.3 4.6-2.1.7-.3 4.8-2.2 4-1.8.5-.2 1-.4.5-.2.4-.2 11-5 3.9-1.8 1.9-.8 15.7-7.1.4-.2 1.5-.7 15.4-7 1.9-.8 16-7.2 24.9 48.9c1.9 3.5.5 7.6-2.9 9.3z" id="Group_535"/></g><g id="Group_537"><path id="Path_123" class="st1" d="m274.3 256.9-84 38.1-1.9-4.7c-1.1-2.7.1-5.8 2.7-7l73.5-33.9c2.7-1.2 5.8-.1 7.1 2.5l2.6 5z"/></g><g id="Group_539"><g id="Group_538"><path id="Path_124" class="st1" d="m250.4 335.8-1.9.8-26.8-55.9-.6-1.3 1.8-.9.6 1.3 26.9 56z"/></g></g><g id="Group_541"><g id="Group_540"><path id="Path_125" class="st1" d="m268 327.9-1.9.9-26.8-56-.1-.1 1.8-.9.1.1 26.9 56z"/></g></g><g id="Group_543"><g id="Group_542"><path id="Path_126" class="st1" d="m285.2 320.1-1.9.9-26.8-56v-.1l1.8-.9v.1l26.9 56z"/></g></g></g><g id="Group_576"><g id="Group_575"><path id="Path_135" class="st1" d="m232.4 344-1.9.8-25.5-56.5 1.9-.9 25.5 56.6z"/></g></g><g id="Group_578"><path id="Path_136" class="st26" d="M40 226.1c0 .1-.1.2-.2.2-.1.1-.2.1-.3.1-.2 0-.3-.1-.4-.2-.2-.1-.4-.3-.6-.4-.3-.2-.6-.3-.9-.4-.4-.1-.8-.2-1.2-.2-.4 0-.8 0-1.2.2-.3.1-.6.3-.8.5-.2.2-.4.4-.5.7-.1.3-.2.6-.2.9 0 .4.1.7.3 1 .2.3.5.5.8.7.4.2.7.4 1.1.5.4.1.9.3 1.3.5s.9.3 1.3.5.8.4 1.1.7c.3.3.6.7.8 1.1.2.5.3 1 .3 1.5 0 .6-.1 1.2-.3 1.8-.2.5-.5 1-.9 1.4-.4.4-1 .7-1.5.9-.7.2-1.4.3-2.1.3-.9 0-1.8-.2-2.6-.6-.8-.3-1.5-.8-2-1.4l.6-.9.2-.2c.1 0 .2-.1.3-.1.1 0 .2 0 .3.1.1.1.2.2.4.3.1.1.3.2.5.4.2.1.4.3.6.4.3.1.5.2.8.3.3.1.7.1 1 .1.4 0 .9 0 1.3-.2.3-.1.7-.3.9-.5.3-.2.4-.5.6-.8.1-.3.2-.7.2-1.1 0-.4-.1-.8-.3-1.1-.2-.3-.5-.5-.8-.7-.4-.2-.7-.4-1.1-.5-.4-.1-.9-.3-1.3-.4s-.9-.3-1.3-.5-.8-.4-1.1-.7c-.3-.3-.6-.7-.8-1.1-.2-.5-.3-1.1-.3-1.6s.1-1 .3-1.5c.2-.5.5-.9.9-1.3s.9-.7 1.4-.9c.6-.2 1.3-.3 1.9-.3.8 0 1.5.2 2.2.4.7.3 1.3.7 1.8 1.2l-.5.9z"/><path id="Path_137" class="st26" d="m53.5 225.8-4.8-.1.3 12.9h-2l-.3-12.9-4.8-.1v-1.7l11.5.3.1 1.6z"/><path id="Path_138" class="st26" d="M66.5 239H65c-.2 0-.3 0-.4-.1l-.3-.3-1.4-3.6-6.6-.2-1.3 3.5c0 .1-.1.2-.2.3-.1.1-.3.1-.4.1h-1.5l5.6-14.5h2l6 14.8zm-4.3-5.5-2.4-6c-.1-.2-.1-.4-.2-.6s-.2-.5-.2-.8c-.1.5-.2.9-.4 1.4l-2.2 5.9 5.4.1z"/><path id="Path_139" class="st26" d="M79.3 239.3h-1.8c-.3 0-.6-.2-.8-.4l-3.9-5.3c-.1-.1-.2-.3-.4-.4-.2-.1-.4-.1-.6-.1h-1.5l.1 6.1h-2l-.3-14.6 4.2.1c.8 0 1.6.1 2.4.3.6.2 1.2.5 1.7.8.4.3.8.8 1 1.3.2.5.3 1.1.4 1.7 0 .5-.1 1-.2 1.4-.1.4-.4.8-.7 1.2-.3.4-.7.7-1.1.9-.5.3-1 .4-1.5.5.3.2.5.4.7.6l4.3 5.9zm-7-7.7c.5 0 1 0 1.5-.2.4-.1.8-.3 1.1-.6.3-.2.5-.6.7-.9.1-.4.2-.8.2-1.2 0-.8-.3-1.5-.9-2-.8-.5-1.7-.8-2.6-.7h-2.2l.1 5.5 2.1.1z"/><path id="Path_140" class="st26" d="m90.4 226.7-4.8-.1.3 12.9h-2l-.3-12.9-4.8-.1v-1.7l11.5.3.1 1.6z"/><path id="Path_141" class="st26" d="m99.2 226.8.1 5.1 6 .1v1.6l-6-.1.1 6.3h-2l-.3-14.6 9.1.2v1.6l-7-.2z"/><path id="Path_142" class="st26" d="M120 240.3h-1.8c-.3 0-.6-.2-.8-.4l-3.9-5.3c-.1-.1-.2-.3-.4-.4-.2-.1-.4-.1-.6-.1H111l.1 6.1h-2l-.3-14.6 4.2.1c.8 0 1.6.1 2.4.3.6.2 1.2.5 1.7.8.4.3.8.8 1 1.3.2.5.3 1.1.4 1.7 0 .5-.1 1-.2 1.4-.2.4-.4.8-.7 1.2-.3.4-.7.7-1.1.9-.5.3-1 .4-1.5.5.3.2.5.4.7.6l4.3 5.9zm-7-7.7c.5 0 1 0 1.5-.2.4-.1.8-.3 1.1-.6.3-.2.5-.6.7-.9.1-.4.2-.8.2-1.2 0-.8-.3-1.5-.9-2-.8-.5-1.7-.8-2.6-.7h-2.2l.1 5.5 2.1.1z"/><path id="Path_143" class="st26" d="M135.2 233.3c0 1-.1 2-.5 3-.3.9-.8 1.7-1.4 2.3-.6.7-1.4 1.2-2.3 1.5-.9.4-1.9.5-2.9.5s-2-.2-3-.6c-.9-.4-1.7-.9-2.3-1.6-.7-.7-1.2-1.5-1.5-2.4-.4-1-.6-2-.6-3s.1-2 .5-3c.3-.9.8-1.7 1.4-2.3.6-.7 1.4-1.2 2.3-1.5.9-.4 1.9-.5 2.9-.5s2 .2 3 .6c.9.4 1.7.9 2.3 1.6.7.7 1.2 1.5 1.5 2.4.4 1 .6 2 .6 3zm-2 0c0-.8-.1-1.6-.4-2.4-.2-.7-.6-1.3-1.1-1.8-.5-.5-1-.9-1.7-1.2-.7-.3-1.4-.4-2.2-.4-.7 0-1.5.1-2.1.3-.6.2-1.2.6-1.6 1.1-.5.5-.8 1.1-1 1.8-.2.8-.3 1.6-.3 2.4 0 .8.1 1.6.4 2.4.2.7.6 1.3 1.1 1.8.5.5 1 .9 1.7 1.2.7.3 1.4.4 2.2.4.7 0 1.5-.1 2.1-.3.6-.2 1.2-.6 1.6-1.1.5-.5.8-1.1 1-1.8.2-.8.3-1.6.3-2.4z"/><path id="Path_144" class="st26" d="m153.2 226.4.3 14.6h-1.7l-.2-10.7v-1l-4.9 9c-.1.3-.4.5-.7.4h-.3c-.3 0-.6-.2-.7-.5l-5.3-9.3c0 .3.1.7.1 1l.2 10.7h-1.7L138 226h1.5c.1 0 .3 0 .4.1l.3.3 5.3 9.1c.1.2.2.3.3.5.1.2.2.4.2.5.1-.2.1-.4.2-.5.1-.2.1-.3.2-.5l4.8-8.9c0-.1.1-.2.3-.3h.4l1.3.1z"/><path id="Path_145" class="st27" d="M42.9 251.3c-.1.2-.3.4-.4.5-.2.1-.4.2-.6.2-.2 0-.5-.1-.7-.2-.3-.1-.5-.3-.9-.5-.3-.2-.7-.3-1.1-.5-.4-.1-.9-.2-1.4-.2-.7-.1-1.4.1-2 .5-.4.4-.7.9-.6 1.5 0 .4.1.8.4 1 .3.3.7.5 1 .7l1.5.6c.6.2 1.1.4 1.7.6.6.2 1.1.5 1.7.7.5.3 1 .6 1.5 1.1.4.4.8 1 1.1 1.6.3.7.4 1.4.4 2.2 0 .9-.1 1.8-.4 2.6-.3.8-.8 1.5-1.4 2.1-.7.6-1.4 1.1-2.3 1.4-1 .3-2 .5-3.1.5-.7 0-1.3-.1-1.9-.2-.7-.1-1.3-.3-1.9-.6-.6-.2-1.2-.5-1.8-.9-.5-.3-1-.7-1.4-1.1l1.4-2.2c.1-.2.3-.3.4-.4.2-.1.4-.2.6-.1.3 0 .6.1.9.3.3.2.6.4 1 .6.4.2.8.4 1.3.6.5.2 1.1.3 1.7.3.7.1 1.4-.1 2-.5.5-.4.8-1.1.7-1.8 0-.4-.1-.8-.4-1.2-.3-.3-.7-.6-1-.8-.5-.2-1-.4-1.5-.5-.5-.2-1.1-.3-1.7-.5-.6-.2-1.1-.4-1.7-.7-.5-.3-1-.6-1.5-1.1-.5-.5-.8-1-1.1-1.6-.3-.8-.4-1.6-.4-2.4 0-.8.1-1.5.4-2.2.3-.7.7-1.4 1.3-1.9.6-.6 1.4-1 2.2-1.3 1-.3 2-.5 3-.4.6 0 1.2.1 1.8.2.6.1 1.1.3 1.7.5.5.2 1 .4 1.5.7.5.3.9.6 1.3.9l-1.3 1.9z"/><path id="Path_146" class="st27" d="M60.9 262.6c.3 0 .5.1.7.3l1.9 2c-.8 1-1.8 1.9-3 2.4-1.4.5-2.9.8-4.4.7-1.4 0-2.9-.3-4.2-.9-1.2-.5-2.3-1.3-3.2-2.2-.9-1-1.6-2.1-2-3.3-.5-1.3-.8-2.7-.8-4.2 0-1.4.2-2.8.7-4.2.4-1.2 1.1-2.3 2-3.2.9-.9 2-1.6 3.2-2.1 1.3-.5 2.7-.7 4.1-.7 1.4 0 2.8.3 4.1.9.6.2 1.1.5 1.6.9.5.3.9.7 1.3 1.1l-1.6 2.1c-.1.1-.2.2-.4.3-.2.1-.4.2-.6.1-.2 0-.3 0-.5-.1s-.3-.2-.5-.3l-.6-.4c-.2-.1-.5-.3-.7-.4-.3-.1-.6-.2-1-.3-.4-.1-.9-.1-1.3-.1-.7 0-1.5.1-2.1.4-.6.3-1.2.7-1.7 1.2-.5.6-.8 1.3-1.1 2-.3.9-.4 1.8-.3 2.7 0 .9.2 1.9.5 2.8.3.8.7 1.5 1.2 2.1.5.6 1.1 1 1.7 1.3.7.3 1.4.5 2.1.5h1.2c.3 0 .7-.1 1-.2.3-.1.6-.2.9-.4.3-.2.6-.4.8-.6.1-.1.2-.2.4-.2.4.1.5 0 .6 0z"/><path id="Path_147" class="st27" d="m82.1 268.4-4.3-.1c-.7 0-1.4-.3-1.7-.9l-3.5-6c-.1-.2-.3-.4-.5-.6-.3-.1-.6-.2-.8-.2h-1.2l.2 7.5-4.7-.1-.4-20.3 6.7.2c1.3 0 2.6.2 3.8.5.9.3 1.8.7 2.6 1.3.6.5 1.2 1.2 1.5 1.9.3.8.5 1.6.5 2.4 0 .6-.1 1.3-.2 1.9-.2.6-.4 1.1-.8 1.6-.3.5-.8.9-1.3 1.3s-1.1.7-1.7.9l.9.6c.3.3.5.5.7.9l4.2 7.2zm-10.3-11c.6 0 1.1 0 1.6-.2.4-.1.8-.4 1.1-.6.3-.3.5-.6.6-1 .1-.4.2-.8.2-1.2 0-.8-.3-1.6-.9-2.1-.8-.6-1.8-.9-2.7-.8h-1.9l.1 6 1.9-.1z"/><path id="Path_148" class="st27" d="m103.2 268.9-3.7-.1c-.4 0-.7-.1-1-.3-.3-.2-.5-.5-.6-.7l-1.3-3.6-7.8-.2-1.1 3.5c-.1.3-.3.5-.5.7-.3.2-.6.3-1 .3l-3.7-.1 7.5-20.1 4.9.1 8.3 20.5zm-7.7-8-2-5.6c-.1-.4-.3-.8-.5-1.3s-.3-1-.5-1.6c-.1.6-.3 1.1-.4 1.6-.2.5-.3.9-.4 1.2l-1.8 5.5 5.6.2z"/><path id="Path_149" class="st27" d="m116.9 252.6-5.8-.1.3 16.6-4.7-.1-.3-16.6-5.8-.1-.1-3.7 16.3.4.1 3.6z"/><path id="Path_150" class="st27" d="M132.5 264.3c.3 0 .5.1.7.3l1.9 2c-.8 1-1.8 1.9-3 2.4-1.4.5-2.9.8-4.4.7-1.4 0-2.9-.3-4.2-.9-1.2-.5-2.3-1.3-3.2-2.2-.9-1-1.6-2.1-2-3.3-.5-1.3-.8-2.7-.8-4.2 0-1.4.2-2.8.7-4.2.4-1.2 1.1-2.3 2-3.2.9-.9 2-1.6 3.2-2.1 1.3-.5 2.7-.7 4.1-.7.7 0 1.5.1 2.2.3.7.1 1.3.3 1.9.6.6.2 1.1.5 1.6.9.5.3.9.7 1.3 1.1l-1.6 2.1c-.1.1-.2.2-.4.3-.2.1-.4.2-.6.1-.2 0-.3 0-.5-.1s-.3-.2-.5-.3l-.6-.4c-.2-.1-.5-.3-.7-.4-.3-.1-.6-.2-1-.3-.4-.1-.9-.1-1.3-.1-.7 0-1.5.1-2.1.4-.6.3-1.2.7-1.7 1.2-.5.6-.8 1.3-1.1 2-.3.9-.4 1.8-.3 2.7 0 .9.2 1.9.5 2.8.3.8.7 1.5 1.2 2.1 1 1.1 2.4 1.8 3.9 1.8h1.2c.3 0 .7-.1 1-.2.3-.1.6-.2.9-.4.3-.2.6-.4.8-.6.1-.1.2-.2.4-.2h.5z"/><path id="Path_151" class="st27" d="m154.4 249.7.4 20.3-4.8-.1-.2-8.6-8.3-.2.2 8.6-4.8-.1-.4-20.3 4.8.1.2 8.5 8.3.2-.2-8.5 4.8.1z"/></g></svg>