<svg xmlns="http://www.w3.org/2000/svg" width="500" height="545.25"><g data-name="Group 369"><g data-name="Group 365"><g data-name="Group 350"><path data-name="Path 71" d="m195.727 427.031-2.668-3q2.966-2.64 5.808-5.412l2.8 2.875q-2.9 2.835-5.94 5.537Zm11.629-11.344-2.934-2.742q2.709-2.9 5.294-5.923l3.052 2.608q-2.637 3.09-5.412 6.057Zm10.549-12.351-3.17-2.468q2.439-3.134 4.741-6.374l3.276 2.326q-2.353 3.31-4.847 6.516Zm9.4-13.24-3.373-2.177q2.155-3.342 4.164-6.771l3.468 2.032q-2.05 3.501-4.254 6.916Zm8.207-14.011-3.55-1.879q1.855-3.51 3.56-7.1l3.629 1.722q-1.735 3.665-3.634 7.257Zm6.959-14.672-3.7-1.561q1.545-3.663 2.93-7.387l3.766 1.4q-1.409 3.808-2.991 7.547Zm5.665-15.222-3.825-1.232q1.221-3.784 2.275-7.615l3.881 1.068q-1.08 3.913-2.326 7.779Zm4.3-15.657-3.916-.89q.881-3.876 1.589-7.784l3.955.714q-.717 3.996-1.621 7.96Zm2.9-15.984-3.982-.533q.527-3.937.877-7.9l4 .353q-.351 4.05-.891 8.08Zm1.418-16.184-4.013-.167q.108-2.66.135-5.321l.008-1.6v-1.014l4.017-.023v1.037l-.008 1.644q-.026 2.721-.135 5.444Zm-4.108-16.039q-.208-3.966-.6-7.918l4-.4q.4 4.039.618 8.1Zm-1.567-15.8q-.573-3.93-1.322-7.834l3.947-.757q.765 3.99 1.349 8.011Zm-2.993-15.6q-.921-3.864-2.012-7.685l3.864-1.1q1.114 3.9 2.055 7.858Zm-4.362-15.27q-1.263-3.775-2.68-7.485l3.751-1.436q1.453 3.792 2.738 7.648Zm-5.679-14.845q-1.58-3.645-3.316-7.22l3.613-1.757q1.773 3.654 3.391 7.381Zm-6.949-14.291q-1.889-3.5-3.931-6.9l3.448-2.064q2.084 3.484 4.017 7.058Zm-87.16-7.52q-2.092 0-4.18-.155l.3-4.006a54.094 54.094 0 0 0 7.744.01l.271 4.01q-2.071.139-4.135.142Zm12.326-1.189-.726-3.95a87.657 87.657 0 0 0 7.644-1.783l1.079 3.868a90.605 90.605 0 0 1-7.997 1.865Zm-24.768-.292a40.934 40.934 0 0 1-7.922-2.9l1.761-3.608a36.768 36.768 0 0 0 7.142 2.616Zm40.552-4.051-1.342-3.785q3.725-1.322 7.362-2.878l1.58 3.692q-3.75 1.608-7.6 2.972Zm50.89-.578q-2.186-3.316-4.521-6.534l3.252-2.358q2.387 3.286 4.623 6.679Zm-106.525-2.756a35.617 35.617 0 0 1-6.024-5.99l3.158-2.48a31.687 31.687 0 0 0 5.349 5.312Zm70.628-3.08-1.8-3.589q3.529-1.774 6.951-3.772l2.024 3.472q-3.528 2.054-7.175 3.89Zm26.566-7.02q-2.474-3.106-5.086-6.1l3.029-2.64q2.672 3.06 5.2 6.239Zm-12.475-1.188-2.232-3.343q3.289-2.195 6.446-4.588l2.428 3.2q-3.25 2.464-6.642 4.732Zm-95.078-2.081a28.421 28.421 0 0 1-1.406-4.465 27.075 27.075 0 0 1-.589-3.931l4.006-.3a23.364 23.364 0 0 0 .5 3.347 24.253 24.253 0 0 0 1.206 3.824Zm108.063-7.774-2.616-3.048q3-2.577 5.843-5.331l2.8 2.883q-2.931 2.84-6.027 5.497Zm-10.95-.924q-2.744-2.868-5.618-5.609l2.769-2.907q2.946 2.8 5.752 5.739Zm-94.481-7.341-3.9-.95a31.6 31.6 0 0 1 3.152-7.946l3.507 1.958a27.68 27.68 0 0 0-2.759 6.939Zm117.134-3.082-2.966-2.711q2.669-2.918 5.147-6l3.13 2.519q-2.562 3.178-5.311 6.193Zm-34.144-.524-.688-.6a136.37 136.37 0 0 0-5.437-4.427l2.451-3.181c1.917 1.477 3.784 3 5.6 4.56l.7.6Zm-75.8-9.458-2.977-2.7a42.113 42.113 0 0 1 6.261-5.633l2.377 3.236a38.129 38.129 0 0 0-5.668 5.098Zm63.269-.172a95.536 95.536 0 0 0-6.72-4.09l1.942-3.519a97.937 97.937 0 0 1 7 4.266Zm56.909-2.546-3.28-2.323q2.286-3.225 4.358-6.592l3.421 2.106q-2.147 3.476-4.504 6.81Zm-70.658-4.988a64.45 64.45 0 0 0-7.327-2.631l1.119-3.86a69.073 69.073 0 0 1 7.785 2.8Zm-37.3-1.289-1.706-3.637a41.057 41.057 0 0 1 7.961-2.789l.922 3.911a36.918 36.918 0 0 0-7.178 2.516Zm22.406-2.978a47.925 47.925 0 0 0-6.645-.47l-1.04.011-.086-4.017 1.126-.012a51.851 51.851 0 0 1 7.206.51Z" fill="#49b749"/></g><g data-name="Group 351" transform="translate(-186.633 600.012)"><circle data-name="Ellipse 12" cx="77.479" cy="77.479" r="77.479" transform="translate(211.74 -260.635)" fill="#e7d4ff"/></g><g data-name="Group 352" transform="translate(-186.633 600.012)"><circle data-name="Ellipse 13" cx="49.282" cy="49.282" r="49.282" transform="translate(541.249 -224.001)" fill="#c1f7a4"/></g><g data-name="Group 353"><path data-name="Path 72" d="M344.43 366.544V309.76a87.623 87.623 0 0 0-87.523-87.523 87.623 87.623 0 0 0-87.524 87.523 20.362 20.362 0 0 0 20.362 20.362 20.361 20.361 0 0 0 20.361-20.362 46.853 46.853 0 0 1 46.8-46.8 46.853 46.853 0 0 1 46.8 46.8v56.688H172.334a43.418 43.418 0 0 0-43.424 43.411v91.966a43.421 43.421 0 0 0 43.424 43.425h169.133a43.42 43.42 0 0 0 43.424-43.425v-91.966a43.423 43.423 0 0 0-40.461-43.315Zm-75.935 96.554a3.874 3.874 0 0 0-1.71 3.19v10.224a9.892 9.892 0 0 1-9.91 9.9 9.962 9.962 0 0 1-9.854-9.991v-10.126a3.845 3.845 0 0 0-1.684-3.177 20.683 20.683 0 0 1-9.108-17.388 20.628 20.628 0 0 1 20.728-20.43 20.673 20.673 0 0 1 20.619 20.674 20.659 20.659 0 0 1-9.081 17.124Z" fill="#00d14b"/></g><g data-name="Group 354"><path data-name="Path 73" d="M413.35 188.13c-11.415 10.62-20.519 26.442-26.4 36.791-19.986 35.177-27.228 74.518-21.7 114.456-.941-6.8 4.645-18.787 6.987-25.375a153.65 153.65 0 0 1 11.971-25.952c10.276-17.618 24.668-33.248 40.756-45.722 8.726-6.766 18.818-11.038 27.682-17.468a26.007 26.007 0 0 0 9.87-28.925 27.129 27.129 0 0 0-21.154-18.65c-10.314-1.783-19.766 3.174-28.012 10.845Z" fill="#ffa471"/></g><g data-name="Group 355"><path data-name="Path 74" d="M34.923 244.686c13.81 2.777 28.3 10.653 37.721 15.839a161.89 161.89 0 0 1 70.837 77.847c-2.493-5.682-12.461-12.265-17.38-16.23a138.858 138.858 0 0 0-21.488-14.317c-16.243-8.7-34.715-13.929-53-15.924-9.918-1.081-19.707.4-29.571-.355a23.5 23.5 0 0 1-21.278-17.6 24.512 24.512 0 0 1 7.465-24.361c7.097-6.251 16.718-6.905 26.694-4.899Z" fill="#abe5ff"/></g><g data-name="Group 356"><path data-name="Path 75" d="M138.077 266.487c-2.015 5.07-2.52 11.438-2.826 15.592a62.706 62.706 0 0 0 10.316 39.441c-1.319-2.009-1.35-6.636-1.6-9.07a53.721 53.721 0 0 1-.11-10 56.879 56.879 0 0 1 6.025-20.57c1.744-3.448 4.293-6.313 6.131-9.676a9.1 9.1 0 0 0-1.22-10.625 9.492 9.492 0 0 0-9.485-2.722c-3.531.983-5.775 3.968-7.231 7.63Z" fill="#9fb8ff"/></g><g data-name="Group 357"><path data-name="Path 76" d="M417.411 317.251c-4.979-.041-10.563 1.632-14.2 2.743a57.218 57.218 0 0 0-30.15 21.791c1.274-1.785 5.2-3.339 7.189-4.354a49.1 49.1 0 0 1 8.472-3.394 51.929 51.929 0 0 1 19.488-1.664c3.509.345 6.788 1.569 10.255 2.022a8.3 8.3 0 0 0 8.637-4.545 8.662 8.662 0 0 0-.815-8.968c-2-2.677-5.28-3.601-8.876-3.631Z" fill="#ff8080"/></g><g data-name="Group 358"><path data-name="Path 77" d="M487.951 334.72a92.084 92.084 0 0 0-19.2 1.307c-5.632.989-12.171 2.192-17.249 4.895-6.493 3.456-9.646 11.041-5.873 17.735a103.71 103.71 0 0 0 22.543 27.345c7.53 6.555 16.514 1.968 20.69-5.671a104.74 104.74 0 0 0 10.9-30.513 12.631 12.631 0 0 0-11.811-15.098Z" fill="#abe5ff"/></g><g data-name="Group 359"><path data-name="Path 78" d="M306.198 63.702s-9.459.859-12.575 40.323-47.732 38.745-47.732 38.745a58.884 58.884 0 0 0 21.389-39.047c2.722-25.493 12.677-45.648 38.918-40.021Z" fill="#88f28c"/></g><g data-name="Group 360"><path data-name="Path 79" d="M279.504 111.117s-35.013-6.657-34.912-51.926S193.018 0 193.018 0s28.751 19.356 30.93 70.05c1.859 43.232 55.556 41.067 55.556 41.067Z" fill="#88f28c"/></g><g data-name="Group 361"><path data-name="Path 80" d="M279.129 109.432s-32 15.7-59.1-20.567-76.781-16.373-76.781-16.373 34.614-1.781 66.791 37.451c27.447 33.458 69.09-.511 69.09-.511Z" fill="#88f28c"/></g><g data-name="Group 362" transform="translate(-186.633 600.012)"><circle data-name="Ellipse 14" cx="3.436" cy="3.436" r="3.436" transform="translate(474.241 -531.315)" fill="#49b749"/></g><g data-name="Group 363" transform="translate(-186.633 600.012)"><circle data-name="Ellipse 15" cx="15.585" cy="15.585" r="15.585" transform="translate(258.049 -402.415)" fill="#f99"/></g><g data-name="Group 364" transform="translate(-186.633 600.012)"><circle data-name="Ellipse 16" cx="36.26" cy="36.26" r="36.26" transform="translate(486.542 -470.011)" fill="#eae47d"/></g></g><g data-name="Group 366" transform="translate(-186.633 600.012)"><circle data-name="Ellipse 17" cx="5.199" cy="5.199" r="5.199" transform="translate(242.163 -458.553)" fill="#e7d4ff"/></g><g data-name="Group 367" transform="translate(-186.633 600.012)"><circle data-name="Ellipse 18" cx="7.304" cy="7.304" r="7.304" transform="translate(535.479 -518.755)" fill="#c1f7a4"/></g><g data-name="Group 368" transform="translate(-186.633 600.012)"><circle data-name="Ellipse 19" cx="6.555" cy="6.555" r="6.555" transform="translate(337.26 -593.317)" fill="#abe5ff"/></g></g></svg>